<svg width="94" height="94" viewBox="0 0 94 94" fill="none" xmlns="http://www.w3.org/2000/svg">
<path d="M80.2341 13.766C71.357 4.88892 59.5541 0 47 0C34.4459 0 22.643 4.88892 13.7659 13.766C4.88873 22.6432 0 34.4459 0 47C0 59.5541 4.88873 71.357 13.7659 80.234C22.643 89.1109 34.4459 94 47 94C59.5541 94 71.357 89.1111 80.2341 80.234C89.1113 71.3568 94 59.5541 94 47C94 34.4459 89.1113 22.643 80.2341 13.766ZM47 84.7748C26.1707 84.7748 9.22522 67.8291 9.22522 47C9.22522 46.9659 9.22632 46.9321 9.2265 46.8983C9.2265 46.8897 9.22522 46.8814 9.22522 46.8728C9.22522 46.8583 9.22705 46.8443 9.22742 46.83C9.31903 26.2504 25.9502 9.50722 46.4867 9.23183C46.5296 9.22981 46.5722 9.2254 46.6157 9.2254C46.6418 9.2254 46.6671 9.22852 46.693 9.22926C46.7955 9.22852 46.8976 9.2254 47.0002 9.2254C67.8294 9.2254 84.775 26.1711 84.775 47.0002C84.775 67.8293 67.8293 84.7748 47 84.7748Z" fill="url(#paint0_linear)"/>
<path d="M75.6926 49.2692C74.1567 49.2692 72.9116 48.0241 72.9116 46.4881C72.9116 44.9522 74.1567 43.7071 75.6926 43.7071H79.0449C77.4704 28.2712 64.9519 16.0261 49.396 14.8764V17.7946C49.396 19.3306 48.1508 20.5757 46.6149 20.5757C45.0789 20.5757 43.8338 19.3306 43.8338 17.7946V14.9429C28.5081 16.4447 16.3004 28.7311 14.9193 44.0913H17.9214C19.4573 44.0913 20.7025 45.3365 20.7025 46.8724C20.7025 48.4083 19.4573 49.6535 17.9214 49.6535H14.8965C16.1752 65.261 28.6276 77.7516 44.2182 79.0913V75.5657C44.2182 74.0298 45.4634 72.7846 46.9993 72.7846C48.5353 72.7846 49.7804 74.0298 49.7804 75.5657V79.0913C65.4986 77.7406 78.0269 65.0553 79.131 49.2692H75.6926ZM58.2573 39.675L48.966 48.9665C48.4444 49.4881 47.7372 49.7811 46.9995 49.7811C46.262 49.7811 45.5544 49.4881 45.033 48.9665L28.8597 32.7931C27.7736 31.7072 27.7736 29.9463 28.8597 28.8602C29.9457 27.7741 31.7065 27.7741 32.7927 28.8602L46.9997 43.0671L54.3247 35.742C55.4107 34.6559 57.1715 34.6559 58.2577 35.742C59.3434 36.828 59.3434 38.589 58.2573 39.675Z" fill="url(#paint1_linear)"/>
<defs>
<linearGradient id="paint0_linear" x1="47" y1="0" x2="47" y2="94" gradientUnits="userSpaceOnUse">
<stop offset="0.156236" stop-color="#315FA6"/>
<stop offset="1" stop-color="#00307A"/>
</linearGradient>
<linearGradient id="paint1_linear" x1="47.0137" y1="14.8764" x2="47.0137" y2="79.0913" gradientUnits="userSpaceOnUse">
<stop offset="0.281241" stop-color="#315FA6"/>
<stop offset="1" stop-color="#00307A"/>
</linearGradient>
</defs>
</svg>
