<svg width="24" height="22" viewBox="0 0 24 22" fill="none" xmlns="http://www.w3.org/2000/svg">
<path d="M10.5413 21.0824C4.72923 21.0824 0 16.3533 0 10.5413C0 4.72923 4.72923 0 10.5413 0C12.5623 0 14.5286 0.575888 16.2277 1.66643C16.5613 1.8812 16.659 2.32584 16.4442 2.66028C16.2288 2.99472 15.785 3.09141 15.4505 2.87681C13.9843 1.93472 12.2863 1.43744 10.5413 1.43744C5.52165 1.43744 1.43744 5.52165 1.43744 10.5413C1.43744 15.5607 5.52165 19.645 10.5413 19.645C15.5607 19.645 19.645 15.5607 19.645 10.5413C19.645 10.2412 19.6306 9.94416 19.6028 9.65201C19.5646 9.25615 19.8539 8.90539 20.2487 8.86714C20.6455 8.83064 20.9952 9.11823 21.0336 9.51304C21.0661 9.85134 21.0824 10.1944 21.0824 10.5413C21.0824 16.3533 16.3533 21.0824 10.5413 21.0824Z" fill="#00307A"/>
<path d="M11.7416 12.9369C11.5577 12.9369 11.3737 12.8669 11.2338 12.7261L6.9215 8.41381C6.64075 8.13289 6.64075 7.67772 6.9215 7.39697C7.20225 7.11622 7.65742 7.11622 7.93817 7.39697L11.7427 11.2015L21.7749 1.16906C22.0559 0.888309 22.511 0.888309 22.7918 1.16906C23.0725 1.44981 23.0725 1.90497 22.7918 2.18572L12.2505 12.727C12.1096 12.8669 11.9257 12.9369 11.7416 12.9369Z" fill="#00307A"/>
</svg>
