<svg width="74" height="102" viewBox="0 0 74 102" fill="none" xmlns="http://www.w3.org/2000/svg">
<path d="M60.7199 49.6578C60.7199 45.767 63.6569 42.6141 67.279 42.6141H67.4249C71.0411 42.6141 73.9756 45.7543 73.984 49.6383C74.0146 62.3453 73.9951 63.5924 73.9773 82.5713C73.9671 93.2279 65.9207 101.859 55.9989 101.859H34.6968C28.1783 101.859 22.1686 98.0675 18.9924 91.9528L0 55.3687L1.98403 53.7187C6.09284 49.9324 12.273 50.3983 15.8477 54.7609L21.163 61.2487L21.1935 16.6168C21.1961 12.7277 24.1331 9.57647 27.7536 9.57647H27.7552C31.3782 9.57647 34.3153 12.732 34.3153 16.6228V43.6342C34.4018 39.8258 37.304 36.7723 40.8702 36.7723H41.0237C44.6466 36.7723 47.5837 39.9261 47.5837 43.8169V46.0849C47.5837 42.1933 50.5199 39.0403 54.1454 39.0403H54.1607C57.7828 39.0403 60.7199 42.1933 60.7199 46.0849V49.6578Z" fill="url(#paint0_linear)"/>
<path d="M27.8581 0C19.2075 0.00941779 12.1978 7.01453 12.1875 15.6583C12.1875 16.6267 12.9732 17.4118 13.9423 17.4118C14.9114 17.4118 15.6971 16.6267 15.6971 15.6583C15.6971 8.94689 21.1422 3.50684 27.8581 3.50684C34.5739 3.50684 40.0191 8.94689 40.0191 15.6583C40.0191 16.6267 40.8048 17.4118 41.7739 17.4118C42.743 17.4118 43.5287 16.6267 43.5287 15.6583C43.5184 7.01453 36.5087 0.00941779 27.8581 0Z" fill="#00307A"/>
<defs>
<linearGradient id="paint0_linear" x1="26.8295" y1="9.67501" x2="32.9472" y2="101.857" gradientUnits="userSpaceOnUse">
<stop offset="0.468749" stop-color="#315FA6"/>
<stop offset="1" stop-color="#00307A"/>
</linearGradient>
</defs>
</svg>
