<svg width="97" height="106" viewBox="0 0 97 106" fill="none" xmlns="http://www.w3.org/2000/svg">
<path d="M15.5195 31.8531V92.8572H81.0484V31.8531H15.5195ZM34.4884 81.6082H23.2795V66.0327H34.4884V81.6082ZM34.4884 56.0816H23.2795V38.3429H34.4884V56.0816ZM53.8884 81.6082H42.6795V66.0327H53.8884V81.6082ZM53.8884 56.0816H42.6795V38.3429H53.8884V56.0816ZM73.7195 81.6082H62.5106V66.0327H73.7195V81.6082ZM73.7195 56.0816H62.5106V38.3429H73.7195V56.0816Z" fill="url(#paint0_linear)"/>
<path d="M89.2412 21.2C89.2412 15.5755 84.499 10.8163 78.8945 10.8163H17.6767C12.0723 10.8163 7.33008 15.5755 7.33008 21.2V27.2571H89.2412V21.239V21.2Z" fill="url(#paint1_linear)"/>
<path d="M88.8087 98.8857H7.75977V105.376H88.8087V98.8857Z" fill="url(#paint2_linear)"/>
<path d="M73.7212 0H58.2012V9.95102H73.7212V0Z" fill="url(#paint3_linear)"/>
<defs>
<linearGradient id="paint0_linear" x1="48.284" y1="31.8531" x2="48.284" y2="92.8572" gradientUnits="userSpaceOnUse">
<stop offset="0.442706" stop-color="#315FA6"/>
<stop offset="1" stop-color="#00307A"/>
</linearGradient>
<linearGradient id="paint1_linear" x1="48.2856" y1="10.8163" x2="48.2856" y2="27.2571" gradientUnits="userSpaceOnUse">
<stop offset="0.442706" stop-color="#315FA6"/>
<stop offset="1" stop-color="#00307A"/>
</linearGradient>
<linearGradient id="paint2_linear" x1="48.2842" y1="98.8857" x2="48.2842" y2="105.376" gradientUnits="userSpaceOnUse">
<stop offset="0.442706" stop-color="#315FA6"/>
<stop offset="1" stop-color="#00307A"/>
</linearGradient>
<linearGradient id="paint3_linear" x1="65.9612" y1="0" x2="65.9612" y2="9.95102" gradientUnits="userSpaceOnUse">
<stop offset="0.442706" stop-color="#315FA6"/>
<stop offset="1" stop-color="#00307A"/>
</linearGradient>
</defs>
</svg>
