<svg width="124" height="115" viewBox="0 0 124 115" fill="none" xmlns="http://www.w3.org/2000/svg">
<path d="M122.373 51.9345C119.854 51.1455 120.474 55.7364 113.732 55.7364C109.237 55.7364 107.067 53.6561 105.517 51.8987C105.013 48.4196 104.044 45.0482 102.649 41.8919C103.037 39.6682 103.812 36.8707 107.648 34.8263C113.499 31.7059 115.437 35.974 117.18 34.1089C117.917 33.3199 117.025 30.9168 115.669 28.6572C114.235 26.4335 112.414 24.4967 111.329 24.7119C108.694 25.1782 111.755 28.8724 105.904 32.0287C101.99 34.1089 98.9678 33.284 96.7203 32.495C94.4341 29.7691 91.7991 27.3661 88.8928 25.2499C88.0016 23.1338 87.1491 20.3362 89.3966 16.7496C92.7678 11.3338 96.7591 14.1314 97.3016 11.7283C97.5341 10.7241 95.4416 9.03833 93.0391 7.71127C90.5978 6.45595 88.0016 5.63102 87.1491 6.31249C85.1341 7.92647 89.7841 9.71979 86.3741 15.1356C84.1266 18.7223 81.1428 19.4037 78.7403 19.7624C75.3303 18.4712 71.7266 17.5745 67.9291 17.1083C66.0303 15.6736 63.7828 13.6651 63.7828 9.50459C63.7828 3.22798 68.7428 3.8377 67.8903 1.50639C67.5416 0.537996 64.8291 0.0358664 62.0391 0C59.2491 0.0358664 56.5366 0.537996 56.1878 1.50639C55.3353 3.8377 60.2953 3.26384 60.2953 9.50459C60.2953 13.6651 58.0478 15.6736 56.1491 17.1083C52.3903 17.5745 48.7478 18.4712 45.3378 19.7624C42.9353 19.4037 39.9128 18.6864 37.7041 15.1356C34.3328 9.71979 38.9441 7.92647 36.9291 6.31249C36.0766 5.63102 33.4803 6.45595 31.0391 7.71127C28.6366 9.03833 26.5441 10.7241 26.7766 11.7283C27.2803 14.1672 31.2716 11.3338 34.6816 16.7496C36.9291 20.3721 36.0378 23.1697 35.1853 25.2858C32.2791 27.4019 29.6441 29.805 27.3578 32.5308C25.0716 33.3557 22.0491 34.1807 18.1353 32.0646C12.2841 28.9442 15.3066 25.2499 12.7103 24.7837C11.6253 24.5685 9.80406 26.5053 8.37031 28.729C7.01406 30.9886 6.12281 33.4275 6.85906 34.1807C8.60281 36.0457 10.5403 31.7418 16.3916 34.898C20.2666 36.9783 21.0028 39.74 21.3903 41.9637C19.9953 45.1199 19.0266 48.4555 18.5228 51.9345C16.9728 53.692 14.8028 55.7722 10.3078 55.7722C3.52656 55.7722 4.18531 51.1813 1.66656 51.9704C0.620313 52.2932 0.0778125 54.8039 0.0390625 57.3862C0.0778125 59.9686 0.620313 62.4793 1.66656 62.8379C4.18531 63.627 3.56531 59.0361 10.3078 59.0361C14.8028 59.0361 16.9728 61.1163 18.5228 62.8738C19.0266 66.3528 19.9953 69.6884 21.3903 72.8446C21.0028 75.0684 20.2278 77.8659 16.3916 79.9103C10.5403 83.0307 8.60281 78.7626 6.85906 80.6276C6.12281 81.4167 7.01406 83.8198 8.37031 86.0793C9.80406 88.3031 11.6253 90.2398 12.7103 90.0247C15.3453 89.5584 12.2841 85.8641 18.1353 82.7079C22.0491 80.6277 25.0716 81.4526 27.3578 82.2416C29.6441 84.9316 32.2403 87.3705 35.1853 89.4867C36.0766 91.6028 36.9678 94.4003 34.6816 98.0229C31.3103 103.439 27.3191 100.641 26.8153 103.044C26.5828 104.048 28.6753 105.734 31.0778 107.061C33.5191 108.317 36.1153 109.141 36.9678 108.46C38.9828 106.846 34.3328 105.053 37.7428 99.6368C39.9903 96.0502 43.0128 95.3687 45.4153 95.0101C48.8253 96.3013 52.4291 97.1979 56.1878 97.6642C58.0866 99.0988 60.3341 101.107 60.3341 105.268C60.3341 111.544 55.3741 110.935 56.2266 113.266C56.5753 114.234 59.2878 114.737 62.0778 114.772C64.8678 114.737 67.5803 114.234 67.9291 113.266C68.7816 110.935 63.8216 111.509 63.8216 105.268C63.8216 101.107 66.0691 99.0988 67.9678 97.6642C71.7266 97.1979 75.3691 96.3013 78.7403 95.0101C81.1428 95.3687 84.1653 96.0861 86.3741 99.6368C89.7453 105.053 85.1341 106.846 87.1491 108.46C88.0016 109.141 90.5978 108.317 93.0391 107.061C95.4416 105.734 97.5341 104.048 97.3016 103.044C96.7978 100.605 92.8066 103.439 89.3966 98.0229C87.1491 94.4003 88.0403 91.6028 88.8928 89.4867C91.7991 87.3705 94.4341 84.9675 96.7203 82.2416C99.0066 81.4167 102.029 80.5918 105.943 82.7079C111.794 85.8283 108.772 89.5225 111.368 89.9888C112.453 90.204 114.274 88.2672 115.708 86.0435C117.064 83.7839 117.955 81.345 117.219 80.5918C115.475 78.7267 113.538 83.0307 107.687 79.8745C103.812 77.7942 103.075 75.0325 102.688 72.8088C104.083 69.6525 105.052 66.317 105.555 62.8021C107.105 61.0446 109.275 58.9644 113.77 58.9644C120.552 58.9644 119.893 63.5553 122.412 62.7662C123.458 62.4434 124 59.9327 124.039 57.3504C123.962 54.768 123.419 52.2573 122.373 51.9345ZM62.0003 92.1408C41.2691 92.1408 24.4128 76.5389 24.4128 57.3504C24.4128 38.1618 41.2691 22.56 62.0003 22.56C82.7316 22.56 99.5878 38.1618 99.5878 57.3504C99.5878 76.5389 82.7316 92.1408 62.0003 92.1408Z" fill="url(#paint0_linear)"/>
<path d="M80.0984 54.0864H43.8672V60.5781H80.0984V54.0864Z" fill="#E33B3B"/>
<defs>
<linearGradient id="paint0_linear" x1="62.0391" y1="0" x2="62.0391" y2="114.772" gradientUnits="userSpaceOnUse">
<stop stop-color="#315FA6"/>
<stop offset="1" stop-color="#00307A"/>
</linearGradient>
</defs>
</svg>
