<svg width="10" height="14" viewBox="0 0 10 14" fill="none" xmlns="http://www.w3.org/2000/svg">
<path d="M5 0C7.75701 0 10 2.27451 10 5.07025C10 8.53985 5.52549 13.6334 5.33498 13.8486C5.15605 14.0507 4.84363 14.0503 4.66502 13.8486C4.47451 13.6334 0 8.53985 0 5.07025C5.34058e-05 2.27451 2.24301 0 5 0ZM5 7.62123C6.38712 7.62123 7.5156 6.47687 7.5156 5.07025C7.5156 3.66363 6.3871 2.51929 5 2.51929C3.6129 2.51929 2.48443 3.66366 2.48443 5.07028C2.48443 6.47689 3.6129 7.62123 5 7.62123Z" fill="white"/>
</svg>
