<svg width="16" height="10" viewBox="0 0 16 10" fill="none" xmlns="http://www.w3.org/2000/svg">
<path d="M10.6055 5.07464L15.9994 8.17462V1.84375L10.6055 5.07464Z" fill="white"/>
<path d="M0 1.84375V8.17462L5.3939 5.07464L0 1.84375Z" fill="white"/>
<path d="M15.001 0H1.00123C0.502241 0 0.106249 0.33818 0.03125 0.773632L8.0011 5.54724L15.9709 0.773632C15.8959 0.33818 15.5 0 15.001 0Z" fill="white"/>
<path d="M9.68906 5.62396L8.27409 6.47122C8.19009 6.52122 8.09509 6.54577 7.9991 6.54577C7.9031 6.54577 7.8081 6.52122 7.7241 6.47122L6.30913 5.62305L0.03125 9.23303C0.108249 9.66484 0.502241 10.0003 0.999231 10.0003H14.999C15.496 10.0003 15.8899 9.66484 15.9669 9.23303L9.68906 5.62396Z" fill="white"/>
</svg>
