<svg width="71" height="65" viewBox="0 0 71 65" fill="none" xmlns="http://www.w3.org/2000/svg">
<path d="M42.2379 43.7071C40.5744 45.3738 38.3583 46.2908 36.0038 46.2908C33.6499 46.2908 31.4337 45.3738 29.7702 43.7071L17.2789 31.2163C15.6127 29.5523 14.6957 27.3366 14.6957 24.9822C14.6957 22.6277 15.6127 20.4121 17.2789 18.7486C18.9423 17.0819 21.1585 16.1649 23.513 16.1649C25.8669 16.1649 28.0831 17.0819 29.7465 18.7486L36.0038 25.0026L53.2773 7.72967C47.6341 2.91847 40.3274 0 32.3303 0C14.475 0 0 14.475 0 32.3297C0 50.185 14.475 64.66 32.3303 64.66C50.185 64.66 64.66 50.185 64.66 32.3297C64.66 28.9883 64.152 25.7668 63.2113 22.7337L42.2379 43.7071Z" fill="url(#paint0_linear)"/>
<path d="M36.0089 40.4124C35.2566 40.4124 34.5042 40.1245 33.9311 39.5513L21.4403 27.06C20.2907 25.911 20.2907 24.0533 21.4403 22.9043C22.5892 21.7548 24.4465 21.7548 25.596 22.9043L36.0089 33.3172L65.5267 3.79997C66.6757 2.65099 68.5329 2.65099 69.6824 3.79997C70.8314 4.94949 70.8314 6.8067 69.6824 7.95622L38.0868 39.5513C37.5142 40.1245 36.7613 40.4124 36.0089 40.4124Z" fill="url(#paint1_linear)"/>
<defs>
<linearGradient id="paint0_linear" x1="32.33" y1="0" x2="32.33" y2="64.66" gradientUnits="userSpaceOnUse">
<stop offset="0.260407" stop-color="#315FA6"/>
<stop offset="0.979186" stop-color="#00307A"/>
</linearGradient>
<linearGradient id="paint1_linear" x1="45.5612" y1="2.93823" x2="45.5612" y2="40.4124" gradientUnits="userSpaceOnUse">
<stop offset="0.421872" stop-color="#315FA6"/>
<stop offset="1" stop-color="#00307A"/>
</linearGradient>
</defs>
</svg>
