<svg width="125" height="124" viewBox="0 0 125 124" fill="none" xmlns="http://www.w3.org/2000/svg">
<path d="M122.373 56.11C119.854 55.2575 120.474 60.2175 113.732 60.2175C109.237 60.2175 107.067 57.97 105.517 56.0712C105.013 52.3125 104.044 48.67 102.649 45.26C103.037 42.8575 103.812 39.835 107.648 37.6262C113.499 34.255 115.437 38.8662 117.18 36.8512C117.917 35.9987 117.025 33.4025 115.669 30.9613C114.235 28.5588 112.414 26.4662 111.329 26.6987C108.694 27.2025 111.755 31.1938 105.904 34.6037C101.99 36.8512 98.9678 35.96 96.7203 35.1075C94.4341 32.1625 91.7991 29.5662 88.8928 27.28C88.0016 24.9937 87.1491 21.9713 89.3966 18.0963C92.7678 12.245 96.7591 15.2675 97.3016 12.6713C97.5341 11.5863 95.4416 9.765 93.0391 8.33125C90.5978 6.975 88.0016 6.08375 87.1491 6.82C85.1341 8.56375 89.7841 10.5013 86.3741 16.3525C84.1266 20.2275 81.1428 20.9638 78.7403 21.3512C75.3303 19.9563 71.7266 18.9875 67.9291 18.4837C66.0303 16.9338 63.7828 14.7638 63.7828 10.2687C63.7828 3.4875 68.7428 4.14625 67.8903 1.6275C67.5416 0.58125 64.8291 0.03875 62.0391 0C59.2491 0.03875 56.5366 0.58125 56.1878 1.6275C55.3353 4.14625 60.2953 3.52625 60.2953 10.2687C60.2953 14.7638 58.0478 16.9338 56.1491 18.4837C52.3903 18.9875 48.7478 19.9563 45.3378 21.3512C42.9353 20.9638 39.9128 20.1887 37.7041 16.3525C34.3328 10.5013 38.9441 8.56375 36.9291 6.82C36.0766 6.08375 33.4803 6.975 31.0391 8.33125C28.6366 9.765 26.5441 11.5863 26.7766 12.6713C27.2803 15.3062 31.2716 12.245 34.6816 18.0963C36.9291 22.01 36.0378 25.0325 35.1853 27.3187C32.2791 29.605 29.6441 32.2013 27.3578 35.1463C25.0716 36.0375 22.0491 36.9287 18.1353 34.6425C12.2841 31.2712 15.3066 27.28 12.7103 26.7762C11.6253 26.5437 9.80406 28.6362 8.37031 31.0387C7.01406 33.48 6.12281 36.115 6.85906 36.9287C8.60281 38.9437 10.5403 34.2938 16.3916 37.7038C20.2666 39.9512 21.0028 42.935 21.3903 45.3375C19.9953 48.7475 19.0266 52.3512 18.5228 56.11C16.9728 58.0087 14.8028 60.2562 10.3078 60.2562C3.52656 60.2562 4.18531 55.2962 1.66656 56.1487C0.620313 56.4975 0.0778125 59.21 0.0390625 62C0.0778125 64.79 0.620313 67.5025 1.66656 67.89C4.18531 68.7425 3.56531 63.7825 10.3078 63.7825C14.8028 63.7825 16.9728 66.03 18.5228 67.9287C19.0266 71.6875 19.9953 75.2912 21.3903 78.7012C21.0028 81.1037 20.2278 84.1262 16.3916 86.335C10.5403 89.7062 8.60281 85.095 6.85906 87.11C6.12281 87.9625 7.01406 90.5587 8.37031 93C9.80406 95.4025 11.6253 97.495 12.7103 97.2625C15.3453 96.7587 12.2841 92.7675 18.1353 89.3575C22.0491 87.11 25.0716 88.0012 27.3578 88.8537C29.6441 91.76 32.2403 94.395 35.1853 96.6812C36.0766 98.9675 36.9678 101.99 34.6816 105.904C31.3103 111.755 27.3191 108.732 26.8153 111.329C26.5828 112.414 28.6753 114.235 31.0778 115.669C33.5191 117.025 36.1153 117.916 36.9678 117.18C38.9828 115.436 34.3328 113.499 37.7428 107.647C39.9903 103.772 43.0128 103.036 45.4153 102.649C48.8253 104.044 52.4291 105.012 56.1878 105.516C58.0866 107.066 60.3341 109.236 60.3341 113.731C60.3341 120.512 55.3741 119.854 56.2266 122.372C56.5753 123.419 59.2878 123.961 62.0778 124C64.8678 123.961 67.5803 123.419 67.9291 122.372C68.7816 119.854 63.8216 120.474 63.8216 113.731C63.8216 109.236 66.0691 107.066 67.9678 105.516C71.7266 105.012 75.3691 104.044 78.7403 102.649C81.1428 103.036 84.1653 103.811 86.3741 107.647C89.7453 113.499 85.1341 115.436 87.1491 117.18C88.0016 117.916 90.5978 117.025 93.0391 115.669C95.4416 114.235 97.5341 112.414 97.3016 111.329C96.7978 108.694 92.8066 111.755 89.3966 105.904C87.1491 101.99 88.0403 98.9675 88.8928 96.6812C91.7991 94.395 94.4341 91.7987 96.7203 88.8537C99.0066 87.9625 102.029 87.0712 105.943 89.3575C111.794 92.7287 108.772 96.72 111.368 97.2237C112.453 97.4562 114.274 95.3637 115.708 92.9612C117.064 90.52 117.955 87.885 117.219 87.0712C115.475 85.0562 113.538 89.7062 107.687 86.2962C103.812 84.0487 103.075 81.065 102.688 78.6625C104.083 75.2525 105.052 71.6487 105.555 67.8512C107.105 65.9525 109.275 63.705 113.77 63.705C120.552 63.705 119.893 68.665 122.412 67.8125C123.458 67.4637 124 64.7512 124.039 61.9612C123.962 59.1712 123.419 56.4587 122.373 56.11ZM62.0003 99.5487C41.2691 99.5487 24.4128 82.6925 24.4128 61.9612C24.4128 41.23 41.2691 24.3738 62.0003 24.3738C82.7316 24.3738 99.5878 41.23 99.5878 61.9612C99.5878 82.6925 82.7316 99.5487 62.0003 99.5487Z" fill="url(#paint0_linear)"/>
<path d="M65.5245 43.8257H58.472V58.4344H43.8633V65.4869H58.472V80.0957H65.5245V65.4869H80.1333V58.4344H65.5245V43.8257Z" fill="#E33B3B"/>
<defs>
<linearGradient id="paint0_linear" x1="62.0391" y1="0" x2="62.0391" y2="124" gradientUnits="userSpaceOnUse">
<stop stop-color="#315FA6"/>
<stop offset="0.963561" stop-color="#00307A"/>
</linearGradient>
</defs>
</svg>
