<svg width="11" height="13" viewBox="0 0 11 13" fill="none" xmlns="http://www.w3.org/2000/svg">
<path d="M10.5983 9.54068L9.07627 7.72649C8.53268 7.07857 7.60858 7.33776 7.39114 8.18004C7.22806 8.7632 6.68447 9.08716 6.19524 8.95755C5.10806 8.63359 3.64037 6.94898 3.36858 5.58834C3.2055 5.00519 3.53165 4.35726 4.02088 4.16291C4.72755 3.90374 4.94499 2.80227 4.4014 2.15435L2.87934 0.34016C2.44447 -0.113387 1.79217 -0.113387 1.41165 0.34016L0.378832 1.57122C-0.653989 2.86706 0.48755 6.30106 3.04242 9.3463C5.59729 12.3915 8.47832 13.817 9.5655 12.5211L10.5983 11.2901C10.9789 10.7717 10.9789 9.99423 10.5983 9.54068Z" fill="white"/>
</svg>
