<svg width="111" height="95" viewBox="0 0 111 95" fill="none" xmlns="http://www.w3.org/2000/svg">
<g clip-path="url(#clip0)">
<path d="M104.412 58.3445C108.213 57.8371 111.001 54.6662 111.001 50.7343C110.874 46.5487 107.453 43.251 103.398 43.3778H99.9772C103.905 43.1242 107.073 39.8264 106.946 35.7677C106.82 31.5821 103.398 28.2844 99.3436 28.4112L74.3813 28.9186C75.2683 26.6355 76.0285 23.5915 76.9155 20.0401C77.6758 16.996 77.2957 13.9519 76.5354 11.6689C76.4087 10.781 76.1553 9.76636 75.9018 8.8785C74.1279 3.17089 70.3265 -0.634179 67.2854 0.253671C65.3847 0.88785 64.2443 3.42457 64.2443 6.7223C64.2443 7.22964 62.597 11.6689 60.9498 16.235C58.9224 22.3231 53.7272 27.016 46.2511 30.0601C45.6176 30.3138 44.984 30.6943 44.3505 31.0748C41.1827 32.5968 38.7751 35.6409 38.1416 39.1923C35.734 40.968 32.3128 42.2363 28.7648 43.6315C25.2169 49.9733 25.3436 60.6275 29.6518 70.5207C32.8196 77.8772 37.7614 83.9653 43.21 87.3899L81.7306 87.7704C82.1107 87.8972 82.6176 87.8972 82.9977 87.8972L98.0765 87.5167C102.258 87.3899 105.552 83.9653 105.426 79.9065C105.426 77.1162 103.779 74.5794 101.498 73.4379H103.018C107.2 73.4379 110.494 69.8865 110.368 65.8278C110.368 62.0227 107.707 59.1055 104.412 58.3445Z" fill="url(#paint0_linear)"/>
<path d="M22.8639 71.6622C16.7818 57.3298 18.5557 42.6168 26.6653 37.0361C25.1448 36.6555 25.7235 36.5287 22.3023 36.6555C17.7407 36.5287 11.6585 36.9092 9.75778 37.6702C-0.252492 41.9826 -2.91345 58.0908 3.67559 73.5647C8.8708 85.8678 18.5009 94.1121 27.2441 94.8732L37.1276 95C37.2544 95 37.2544 95 37.3811 95H36.929C38.703 95 40.3502 94.6195 41.9975 93.9853C42.7578 93.6048 43.518 93.2243 44.2783 92.7169C36.042 90.8144 27.679 82.9506 22.8639 71.6622Z" fill="url(#paint1_linear)"/>
</g>
<defs>
<linearGradient id="paint0_linear" x1="68.6256" y1="0.125225" x2="68.6256" y2="87.8972" gradientUnits="userSpaceOnUse">
<stop offset="0.583337" stop-color="#315FA6"/>
<stop offset="1" stop-color="#00307A"/>
</linearGradient>
<linearGradient id="paint1_linear" x1="24.1714" y1="36.608" x2="24.1714" y2="95" gradientUnits="userSpaceOnUse">
<stop offset="0.583337" stop-color="#315FA6"/>
<stop offset="1" stop-color="#00307A"/>
</linearGradient>
<clipPath id="clip0">
<rect width="111" height="95" fill="white"/>
</clipPath>
</defs>
</svg>
